<svg width="142" height="49" viewBox="0 0 142 49" fill="none" xmlns="http://www.w3.org/2000/svg">
<path d="M71.7955 21.8735V43H67.4745V30.849C67.4745 30.5687 67.4793 30.2642 67.489 29.9355C67.5083 29.6068 67.5373 29.2733 67.576 28.935L61.9645 39.7955C61.7905 40.1338 61.5537 40.39 61.254 40.564C60.964 40.738 60.6305 40.825 60.2535 40.825H59.5865C59.2095 40.825 58.8712 40.738 58.5715 40.564C58.2815 40.39 58.0495 40.1338 57.8755 39.7955L52.264 28.906C52.293 29.254 52.3172 29.5972 52.3365 29.9355C52.3558 30.2642 52.3655 30.5687 52.3655 30.849V43H48.0445V21.8735H51.7855C51.9982 21.8735 52.1818 21.8783 52.3365 21.888C52.5008 21.8977 52.6458 21.9267 52.7715 21.975C52.8972 22.0233 53.0083 22.1007 53.105 22.207C53.2113 22.3037 53.3128 22.4438 53.4095 22.6275L58.847 33.343C59.0403 33.7103 59.224 34.0922 59.398 34.4885C59.5817 34.8848 59.7557 35.2908 59.92 35.7065C60.0843 35.2812 60.2535 34.8655 60.4275 34.4595C60.6112 34.0535 60.8045 33.6668 61.0075 33.2995L66.4305 22.6275C66.5272 22.4438 66.6238 22.3037 66.7205 22.207C66.8268 22.1007 66.9428 22.0233 67.0685 21.975C67.1942 21.9267 67.3343 21.8977 67.489 21.888C67.6533 21.8783 67.8418 21.8735 68.0545 21.8735H71.7955ZM81.8392 27.7315C82.9799 27.7315 84.0191 27.9103 84.9567 28.268C85.8944 28.6257 86.6967 29.138 87.3637 29.805C88.0404 30.472 88.5624 31.284 88.9297 32.241C89.3067 33.1883 89.4952 34.2565 89.4952 35.4455C89.4952 36.6442 89.3067 37.7268 88.9297 38.6935C88.5624 39.6505 88.0404 40.4673 87.3637 41.144C86.6967 41.811 85.8944 42.3282 84.9567 42.6955C84.0191 43.0532 82.9799 43.232 81.8392 43.232C80.6889 43.232 79.6401 43.0532 78.6927 42.6955C77.7551 42.3282 76.9431 41.811 76.2567 41.144C75.5801 40.4673 75.0532 39.6505 74.6762 38.6935C74.3089 37.7268 74.1252 36.6442 74.1252 35.4455C74.1252 34.2565 74.3089 33.1883 74.6762 32.241C75.0532 31.284 75.5801 30.472 76.2567 29.805C76.9431 29.138 77.7551 28.6257 78.6927 28.268C79.6401 27.9103 80.6889 27.7315 81.8392 27.7315ZM81.8392 39.897C82.8736 39.897 83.6324 39.5345 84.1157 38.8095C84.6087 38.0748 84.8552 36.9632 84.8552 35.4745C84.8552 33.9858 84.6087 32.879 84.1157 32.154C83.6324 31.429 82.8736 31.0665 81.8392 31.0665C80.7759 31.0665 79.9977 31.429 79.5047 32.154C79.0117 32.879 78.7652 33.9858 78.7652 35.4745C78.7652 36.9632 79.0117 38.0748 79.5047 38.8095C79.9977 39.5345 80.7759 39.897 81.8392 39.897ZM105.416 27.9635L99.5866 43H95.4976L89.6686 27.9635H93.4096C93.7286 27.9635 93.9944 28.0408 94.2071 28.1955C94.4294 28.3405 94.5792 28.5242 94.6566 28.7465L96.7446 35.489C96.9282 36.04 97.0877 36.5765 97.2231 37.0985C97.3681 37.6205 97.4937 38.1425 97.6001 38.6645C97.8127 37.6205 98.1076 36.562 98.4846 35.489L100.66 28.7465C100.737 28.5242 100.882 28.3405 101.095 28.1955C101.307 28.0408 101.559 27.9635 101.849 27.9635H105.416ZM111.478 27.9635V43H106.983V27.9635H111.478ZM111.942 23.8455C111.942 24.2032 111.87 24.5415 111.725 24.8605C111.58 25.1698 111.382 25.4453 111.13 25.687C110.879 25.919 110.584 26.1075 110.246 26.2525C109.917 26.3878 109.564 26.4555 109.187 26.4555C108.82 26.4555 108.477 26.3878 108.158 26.2525C107.839 26.1075 107.554 25.919 107.302 25.687C107.061 25.4453 106.867 25.1698 106.722 24.8605C106.587 24.5415 106.519 24.2032 106.519 23.8455C106.519 23.4782 106.587 23.135 106.722 22.816C106.867 22.497 107.061 22.2167 107.302 21.975C107.554 21.7333 107.839 21.5448 108.158 21.4095C108.477 21.2742 108.82 21.2065 109.187 21.2065C109.564 21.2065 109.917 21.2742 110.246 21.4095C110.584 21.5448 110.879 21.7333 111.13 21.975C111.382 22.2167 111.58 22.497 111.725 22.816C111.87 23.135 111.942 23.4782 111.942 23.8455ZM123.966 33.6765C123.966 33.3188 123.917 32.9708 123.821 32.6325C123.734 32.2942 123.584 31.9945 123.371 31.7335C123.168 31.4628 122.898 31.2453 122.559 31.081C122.221 30.9167 121.81 30.8345 121.327 30.8345C120.476 30.8345 119.809 31.081 119.326 31.574C118.842 32.0573 118.523 32.7582 118.369 33.6765H123.966ZM118.311 36.2865C118.456 37.5432 118.838 38.4567 119.456 39.027C120.075 39.5877 120.872 39.868 121.849 39.868C122.371 39.868 122.82 39.8052 123.197 39.6795C123.574 39.5538 123.908 39.4137 124.198 39.259C124.497 39.1043 124.768 38.9642 125.01 38.8385C125.261 38.7128 125.522 38.65 125.793 38.65C126.15 38.65 126.421 38.7805 126.605 39.0415L127.91 40.651C127.446 41.1827 126.943 41.6177 126.402 41.956C125.87 42.2847 125.319 42.5457 124.749 42.739C124.188 42.9227 123.623 43.0483 123.052 43.116C122.492 43.1933 121.955 43.232 121.443 43.232C120.389 43.232 119.398 43.0628 118.47 42.7245C117.552 42.3765 116.745 41.8642 116.049 41.1875C115.362 40.5108 114.816 39.6698 114.41 38.6645C114.014 37.6592 113.816 36.4895 113.816 35.1555C113.816 34.1502 113.985 33.198 114.323 32.299C114.671 31.4 115.164 30.6122 115.802 29.9355C116.45 29.2588 117.228 28.7223 118.137 28.326C119.055 27.9297 120.089 27.7315 121.24 27.7315C122.235 27.7315 123.144 27.8862 123.966 28.1955C124.797 28.5048 125.508 28.9543 126.097 29.544C126.697 30.1337 127.161 30.8587 127.489 31.719C127.828 32.5697 127.997 33.5363 127.997 34.619C127.997 34.9573 127.982 35.2328 127.953 35.4455C127.924 35.6582 127.871 35.8273 127.794 35.953C127.716 36.0787 127.61 36.1657 127.475 36.214C127.349 36.2623 127.185 36.2865 126.982 36.2865H118.311ZM139.802 31.255C139.686 31.4387 139.56 31.5692 139.425 31.6465C139.299 31.7238 139.135 31.7625 138.932 31.7625C138.719 31.7625 138.506 31.719 138.294 31.632C138.081 31.5353 137.849 31.4338 137.598 31.3275C137.356 31.2212 137.08 31.1245 136.771 31.0375C136.462 30.9408 136.109 30.8925 135.713 30.8925C135.142 30.8925 134.702 31.0037 134.393 31.226C134.093 31.4387 133.944 31.7383 133.944 32.125C133.944 32.4053 134.04 32.6373 134.234 32.821C134.437 33.0047 134.702 33.169 135.031 33.314C135.36 33.4493 135.732 33.5798 136.148 33.7055C136.563 33.8312 136.989 33.9713 137.424 34.126C137.859 34.2807 138.284 34.4643 138.7 34.677C139.115 34.88 139.487 35.1362 139.816 35.4455C140.145 35.7452 140.406 36.1125 140.599 36.5475C140.802 36.9825 140.904 37.5045 140.904 38.1135C140.904 38.8578 140.768 39.5442 140.498 40.1725C140.227 40.8008 139.821 41.3422 139.28 41.7965C138.748 42.2508 138.086 42.6037 137.293 42.855C136.51 43.1063 135.606 43.232 134.582 43.232C134.069 43.232 133.557 43.1837 133.045 43.087C132.532 42.9903 132.034 42.8598 131.551 42.6955C131.077 42.5312 130.638 42.3378 130.232 42.1155C129.826 41.8835 129.478 41.637 129.188 41.376L130.232 39.723C130.348 39.5297 130.493 39.3798 130.667 39.2735C130.85 39.1575 131.082 39.0995 131.363 39.0995C131.624 39.0995 131.856 39.1575 132.059 39.2735C132.271 39.3895 132.498 39.5152 132.74 39.6505C132.982 39.7858 133.262 39.9115 133.581 40.0275C133.91 40.1435 134.321 40.2015 134.814 40.2015C135.162 40.2015 135.456 40.1677 135.698 40.1C135.94 40.0227 136.133 39.9212 136.278 39.7955C136.423 39.6698 136.529 39.5297 136.597 39.375C136.665 39.2203 136.699 39.0608 136.699 38.8965C136.699 38.5968 136.597 38.3503 136.394 38.157C136.191 37.9637 135.925 37.7993 135.597 37.664C135.268 37.519 134.891 37.3885 134.466 37.2725C134.05 37.1468 133.625 37.0067 133.19 36.852C132.755 36.6973 132.324 36.5137 131.899 36.301C131.483 36.0787 131.111 35.8032 130.783 35.4745C130.454 35.1362 130.188 34.7253 129.985 34.242C129.782 33.7587 129.681 33.1738 129.681 32.4875C129.681 31.8495 129.801 31.2453 130.043 30.675C130.294 30.095 130.667 29.5875 131.16 29.1525C131.653 28.7175 132.271 28.3743 133.016 28.123C133.76 27.862 134.63 27.7315 135.626 27.7315C136.167 27.7315 136.689 27.7798 137.192 27.8765C137.704 27.9732 138.182 28.1085 138.627 28.2825C139.072 28.4565 139.478 28.6643 139.845 28.906C140.212 29.138 140.536 29.3942 140.817 29.6745L139.802 31.255Z" fill="#FFBE40"/>
<path d="M26.7188 2.90625C23.1197 2.90625 19.9982 4.86937 18.2812 7.76062C16.5643 4.86937 13.4428 2.90625 9.84375 2.90625C4.41647 2.90625 0 7.32272 0 12.75C0 18.1773 4.41647 22.5938 9.84375 22.5938C13.4428 22.5938 16.5643 20.6306 18.2812 17.7394C19.9982 20.6306 23.1197 22.5938 26.7188 22.5938C32.146 22.5938 36.5625 18.1773 36.5625 12.75C36.5625 7.32272 32.146 2.90625 26.7188 2.90625Z" fill="#3A4D4D"/>
<path d="M26.7188 22.5938C32.146 22.5938 36.5625 18.1773 36.5625 12.75C36.5625 7.32272 32.146 2.90625 26.7188 2.90625C23.1197 2.90625 19.9982 4.86937 18.2812 7.76062V17.7394C19.9982 20.6306 23.1197 22.5938 26.7188 22.5938Z" fill="#213333"/>
<path d="M48 43.1505L33.75 36.1193V28.7557L48 21.7244V43.1505Z" fill="#213333"/>
<path d="M36.5625 45.0938H0V19.7812H36.5625V45.0938Z" fill="#4D6666"/>
<path d="M9.84375 16.9688C7.51744 16.9688 5.625 15.0763 5.625 12.75C5.625 10.4237 7.51744 8.53125 9.84375 8.53125C12.1701 8.53125 14.0625 10.4237 14.0625 12.75C14.0625 15.0763 12.1701 16.9688 9.84375 16.9688Z" fill="#F3F5F9"/>
<path d="M26.7188 16.9688C24.3924 16.9688 22.5 15.0763 22.5 12.75C22.5 10.4237 24.3924 8.53125 26.7188 8.53125C29.0451 8.53125 30.9375 10.4237 30.9375 12.75C30.9375 15.0763 29.0451 16.9688 26.7188 16.9688Z" fill="#E1E6F0"/>
<path d="M18.2812 19.7812H36.5625V45.0938H18.2812V19.7812Z" fill="#3A4D4D"/>
<path d="M14.0625 40.6896V24.1854L26.4413 32.4375L14.0625 40.6896Z" fill="#FFE566"/>
<path d="M18.2812 37.8772L26.4413 32.4375L18.2812 26.9977V37.8772Z" fill="#FFBE40"/>
</svg>
