<svg width="20" height="20" viewBox="0 0 20 20" fill="none" xmlns="http://www.w3.org/2000/svg">
<path d="M19.9479 7.67197C19.817 7.26699 19.4578 6.97935 19.0328 6.94105L13.2603 6.4169L10.9777 1.0742C10.8094 0.682654 10.426 0.429199 10.0002 0.429199C9.57428 0.429199 9.19097 0.682654 9.02266 1.07512L6.74004 6.4169L0.966575 6.94105C0.54237 6.98027 0.184084 7.26699 0.0523975 7.67197C-0.0792892 8.07695 0.0423264 8.52114 0.363227 8.80115L4.72659 12.6278L3.43994 18.2956C3.34579 18.7123 3.50753 19.1431 3.85331 19.393C4.03916 19.5273 4.25661 19.5956 4.47588 19.5956C4.66494 19.5956 4.85248 19.5447 5.02079 19.444L10.0002 16.468L14.9777 19.444C15.3419 19.6631 15.8011 19.6431 16.1461 19.393C16.492 19.1423 16.6536 18.7114 16.5595 18.2956L15.2728 12.6278L19.6362 8.80191C19.9571 8.52114 20.0796 8.07771 19.9479 7.67197Z" fill="white"/>
</svg>
